<?xml version="1.0" encoding="UTF-8"?>
<svg xmlns:xlink="http://www.w3.org/1999/xlink" xmlns="http://www.w3.org/2000/svg" xmlns:inkscape="http://www.inkscape.org/namespaces/inkscape" viewBox="0 0 1085 1085" width="1085pt" height="1085pt" version="1.1">
 <defs>
  <clipPath id="Clip0">
   <path d="M0 0 L332.4 0 L332.4 444.293 L0 444.293 L0 0 Z"/>
  </clipPath>
 </defs>
 <g inkscape:label="Fundo" inkscape:groupmode="layer" id="Fundo">
  <g clip-path="url(#Clip0)" clip-rule="evenodd" id="Agrupar2" transform="translate(282.611, 195) scale(1.56371, 1.56428)" style="fill:none; stroke:none">
   <path transform="translate(0, 0)" style="fill:#00b490; fill-rule:nonzero;stroke:none;" d="M140.291 1.29282 C81.391 10.7928 31.391 51.8928 10.291 108.293 C-16.409 179.893 10.191 261.093 74.491 303.993 C132.591 342.793 209.091 340.693 265.791 298.693 C277.291 290.193 292.791 274.293 300.991 262.793 C337.291 211.593 342.491 146.993 314.691 91.2928 C292.191 46.0928 249.991 13.5928 199.691 2.69282 C186.291 -0.207182 154.291 -0.907182 140.291 1.29282 M173.791 212.793 C184.891 214.893 196.491 222.693 202.391 231.993 C206.291 238.093 208.791 247.093 208.791 254.793 C208.791 267.193 204.291 277.393 194.891 286.093 C175.691 304.093 144.791 299.893 129.791 277.293 C126.491 272.393 123.791 262.193 123.791 254.793 C123.791 228.093 147.891 207.893 173.791 212.793 "/>
   <path transform="translate(124.217, 361.005)" style="fill:#00b490; fill-rule:nonzero;stroke:none;" d="M31.6737 1.38805 C10.6737 6.98805 -3.02635 27.7881 0.573654 48.4881 C2.97365 62.4881 11.6737 74.0881 24.2737 80.0881 C30.6737 83.0881 31.7737 83.2881 42.0737 83.2881 C52.3737 83.2881 53.4737 83.0881 59.7737 80.0881 C86.2737 67.5881 92.1737 33.2881 71.4737 12.4881 C60.6737 1.68805 45.8737 -2.41195 31.6737 1.38805 Z"/>
  </g>
 </g>
</svg>
